<?xml version="1.0" encoding="utf-8"?>
<!-- Generator: Adobe Illustrator 26.4.1, SVG Export Plug-In . SVG Version: 6.00 Build 0)  -->
<svg version="1.1" id="Layer_1" xmlns="http://www.w3.org/2000/svg" xmlns:xlink="http://www.w3.org/1999/xlink" x="0px" y="0px"
	 viewBox="0 0 500 500" style="enable-background:new 0 0 500 500;" xml:space="preserve">
<style type="text/css">
	.st0{enable-background:new    ;}
	.st1{fill:#17914E;}
	.st2{fill:#0570A1;}
</style>
<g class="st0">
	<path class="st1" d="M40.2,272.9c0-4.2,0.7-7.8,2.2-10.9c1.5-3.1,3.4-5.8,5.8-8.1c2.4-2.3,5.1-4.4,8.1-6.1s6-3.4,9-4.9
		c2.7-1.3,5.2-2.6,7.6-3.8c2.4-1.2,4.6-2.5,6.4-3.9s3.4-2.9,4.4-4.6c1.1-1.7,1.6-3.6,1.6-5.8c0-4.2-1.4-7.5-4.3-9.9
		c-2.9-2.3-6.9-3.5-12.2-3.5c-3,0-5.6,0.4-7.8,1.2c-2.2,0.8-4.1,2-5.7,3.4c-1.6,1.4-2.9,3.1-3.9,4.9s-1.8,3.9-2.4,5.9
		c0,0.1-0.4,0.1-1.3,0.1s-1.9-0.2-2.9-0.6c-1.1-0.4-2.1-1-2.9-1.9c-0.9-0.9-1.3-2.2-1.3-3.9c0-2.1,0.6-4.3,1.9-6.7s3.1-4.6,5.5-6.6
		c2.4-2,5.5-3.7,9.1-5c3.7-1.3,7.9-2,12.6-2c8.8,0,15.8,2.1,20.8,6.4s7.5,10.2,7.5,17.8c0,3.6-0.7,6.7-2,9.3
		c-1.3,2.6-3.1,4.9-5.3,6.9c-2.2,2-4.7,3.8-7.6,5.2c-2.8,1.5-5.8,3-8.9,4.4c-3,1.3-5.8,2.7-8.4,4.1s-4.9,2.9-6.9,4.6
		c-2,1.7-3.6,3.5-4.8,5.6c-1.2,2.1-1.8,4.5-1.9,7.2h41c4.1,0,6.1,1.7,6.1,5v0.8c0,3.5-2,5.2-6.1,5.2h-45c-2.8,0-4.9-0.5-6.1-1.6
		c-1.2-1-1.9-2.9-1.9-5.4V272.9z"/>
	<path class="st1" d="M108.4,238.5c0-5.8,0.8-11.1,2.3-15.8c1.5-4.7,3.8-8.7,6.7-12c2.9-3.3,6.5-5.8,10.6-7.6
		c4.2-1.8,8.8-2.6,14-2.6c5.2,0,10,0.9,14.1,2.6c4.2,1.8,7.7,4.3,10.6,7.6c2.9,3.3,5.1,7.3,6.7,11.9c1.5,4.7,2.3,9.9,2.3,15.8v8.1
		c0,5.8-0.8,11.1-2.3,15.8c-1.5,4.7-3.8,8.7-6.7,12c-2.9,3.3-6.5,5.8-10.6,7.6c-4.2,1.8-8.9,2.7-14.1,2.7s-10-0.9-14.1-2.6
		c-4.2-1.8-7.7-4.3-10.6-7.6c-2.9-3.3-5.1-7.3-6.6-11.9c-1.5-4.7-2.3-9.9-2.3-15.8V238.5z M142,273.8c6.8,0,11.9-2.3,15.5-6.9
		c3.6-4.6,5.4-11.2,5.4-19.8v-9c0-8.6-1.8-15.2-5.5-19.9c-3.7-4.7-8.8-7.1-15.4-7.1c-6.6,0-11.7,2.3-15.2,6.9
		c-3.6,4.6-5.4,11.2-5.4,19.8v9.1c0,8.6,1.8,15.2,5.4,19.8S135.5,273.8,142,273.8z"/>
	<path class="st1" d="M187.7,238.5c0-5.8,0.8-11.1,2.3-15.8c1.5-4.7,3.8-8.7,6.7-12c2.9-3.3,6.5-5.8,10.6-7.6
		c4.2-1.8,8.8-2.6,14-2.6c5.2,0,10,0.9,14.1,2.6c4.2,1.8,7.7,4.3,10.6,7.6c2.9,3.3,5.1,7.3,6.7,11.9c1.5,4.7,2.3,9.9,2.3,15.8v8.1
		c0,5.8-0.8,11.1-2.3,15.8c-1.5,4.7-3.8,8.7-6.7,12c-2.9,3.3-6.5,5.8-10.6,7.6c-4.2,1.8-8.9,2.7-14.1,2.7s-10-0.9-14.1-2.6
		c-4.2-1.8-7.7-4.3-10.6-7.6c-2.9-3.3-5.1-7.3-6.6-11.9c-1.5-4.7-2.3-9.9-2.3-15.8V238.5z M221.4,273.8c6.8,0,11.9-2.3,15.5-6.9
		c3.6-4.6,5.4-11.2,5.4-19.8v-9c0-8.6-1.8-15.2-5.5-19.9c-3.7-4.7-8.8-7.1-15.4-7.1c-6.6,0-11.7,2.3-15.2,6.9
		c-3.6,4.6-5.4,11.2-5.4,19.8v9.1c0,8.6,1.8,15.2,5.4,19.8S214.9,273.8,221.4,273.8z"/>
</g>
<g class="st0">
	<path class="st2" d="M269.7,207.5c0-3.9,1.8-5.9,5.4-5.9h1.9c3.8,0,5.6,2,5.6,5.9v63.9h35.1c4,0,6,1.8,6,5.5v0.5c0,3.8-2,5.6-6,5.6
		h-41.1c-2.1,0-3.8-0.6-5-1.9c-1.2-1.3-1.9-3-1.9-5.2V207.5z"/>
</g>
<g class="st0">
	<path class="st2" d="M329.4,267.3c0-7,3.3-12.1,9.9-15.2c6.6-3.2,16.8-4.9,30.4-5.1h1.6v-1.2c0-4.6-1.3-8.1-3.8-10.5
		c-2.5-2.4-6.2-3.6-11.1-3.6c-4.6,0-8.2,1-11,3.1c-2.8,2-4.8,4.4-6.2,7.2c-1.6-0.1-2.9-0.3-3.8-0.7c-1-0.4-1.8-1-2.6-1.8
		c-0.8-0.8-1.2-2-1.2-3.5c0-1.4,0.5-3,1.6-4.7c1.1-1.7,2.7-3.3,4.9-4.7c2.2-1.4,4.9-2.6,8.1-3.6c3.2-1,6.9-1.4,11.2-1.4
		c8.6,0,15.1,2.1,19.6,6.2c4.5,4.2,6.7,10.1,6.7,17.8v36.9c0,0.3-0.5,0.6-1.4,0.9c-0.9,0.3-2,0.4-3.1,0.4c-2.2,0-4-0.7-5.4-2.1
		c-1.4-1.4-2.2-3.9-2.2-7.6c-2.3,3.2-5.4,5.8-9.1,7.6s-7.9,2.8-12.5,2.8c-6.5,0-11.5-1.6-15.1-4.7
		C331.2,276.6,329.4,272.5,329.4,267.3z M341.5,266.8c0,2.7,1,4.8,3,6.4c2,1.6,4.8,2.4,8.4,2.4c2.7,0,5.1-0.4,7.4-1.2
		c2.3-0.8,4.2-1.9,5.9-3.4c1.6-1.5,2.9-3.2,3.8-5.2c0.9-2,1.4-4.2,1.4-6.5v-4.6l-3.4,0.1c-8.8,0.3-15.5,1.4-19.9,3.2
		C343.7,259.8,341.5,262.7,341.5,266.8z"/>
	<path class="st2" d="M398.2,198.5c0-0.2,0.4-0.4,1.3-0.8s1.9-0.6,3.2-0.6c0.9,0,1.9,0.1,2.8,0.4c1,0.3,1.8,0.8,2.6,1.6
		c0.8,0.8,1.4,1.9,1.8,3.2c0.5,1.4,0.7,3.1,0.7,5.3v24.5c2.4-3.4,5.3-6.1,8.8-8c3.4-1.9,7.5-2.9,12.2-2.9c4,0,7.7,0.8,11.2,2.2
		c3.5,1.5,6.4,3.6,8.9,6.4s4.5,6.1,5.9,9.9c1.4,3.9,2.1,8.2,2.1,12.9s-0.7,9.1-2.1,12.9c-1.4,3.9-3.4,7.2-5.9,10
		c-2.5,2.8-5.5,5-9,6.5s-7.3,2.3-11.5,2.3c-5.1,0-9.4-1-12.9-3.1c-3.5-2.1-6.1-4.6-7.8-7.5v3.6c0,2.2-0.5,3.8-1.5,4.6
		s-2.3,1.2-3.9,1.2h-1.4c-1.7,0-3-0.4-4-1.2s-1.5-2.4-1.5-4.6V198.5z M410.5,257.5c0.1,2.4,0.6,4.7,1.7,6.8c1,2.1,2.4,3.9,4.1,5.4
		c1.7,1.5,3.6,2.7,5.8,3.5c2.2,0.8,4.5,1.2,6.9,1.2c5.7,0,10.2-2,13.6-5.9c3.4-3.9,5.1-9.1,5.1-15.5c0-3.2-0.5-6-1.4-8.6
		c-0.9-2.6-2.2-4.8-3.8-6.8c-1.6-1.9-3.6-3.4-5.9-4.4c-2.3-1-4.8-1.6-7.4-1.6c-4.7,0-8.6,1.1-11.7,3.4s-5.5,5.3-7.1,9.1V257.5z"/>
</g>
</svg>
